<?xml version="1.0" encoding="UTF-8" standalone="no"?>
<svg
   id="templatesarea.com"
   width="482.02"
   height="571.82"
   viewBox="0 0 482.02 571.82"
   version="1.1"
   sodipodi:docname="batman-graphic-image-free-svg-design-file.svg"
   inkscape:version="1.2.1 (9c6d41e410, 2022-07-14)"
   xmlns:inkscape="http://www.inkscape.org/namespaces/inkscape"
   xmlns:sodipodi="http://sodipodi.sourceforge.net/DTD/sodipodi-0.dtd"
   xmlns="http://www.w3.org/2000/svg"
   xmlns:svg="http://www.w3.org/2000/svg"
   xmlns:rdf="http://www.w3.org/1999/02/22-rdf-syntax-ns#"
   xmlns:cc="http://creativecommons.org/ns#"
   xmlns:dc="http://purl.org/dc/elements/1.1/">
  <title
     id="title155">Batman Graphic Image Free Svg Design File</title>
  <defs
     id="defs47" />
  <sodipodi:namedview
     id="namedview45"
     pagecolor="#ffffff"
     bordercolor="#000000"
     borderopacity="0.25"
     inkscape:showpageshadow="2"
     inkscape:pageopacity="0.0"
     inkscape:pagecheckerboard="0"
     inkscape:deskcolor="#d1d1d1"
     showgrid="false"
     inkscape:zoom="1.4235249"
     inkscape:cx="241.30242"
     inkscape:cy="286.26124"
     inkscape:window-width="1920"
     inkscape:window-height="1001"
     inkscape:window-x="-9"
     inkscape:window-y="-9"
     inkscape:window-maximized="1"
     inkscape:current-layer="templatesarea.com" />
  <g
     id="SPLINE">
    <g
       id="g36">
      <path
         d="m481.51,449.97c.28.21.32.56.16.88-.16.3-.49.44-.83.32-2.64-.81-5.3-1.55-8.03-1.99-2.94-.46-5.97-.58-9-.12-2.57.39-5.16,1.2-6.76,3.52-.97,1.44-1.57,3.47-2.82,3.77-.83.19-1.94-.35-3.03-.6-1.62-.39-3.22-.16-4.58.16-2.15.49-3.82,1.23-6.48,2.89-3.1,1.94-7.55,5.16-7.29,3.82.12-.56,1.04-1.9,1.69-2.96.39-.62.69-1.16,1.02-1.71.81-1.41,1.76-3.01,1.69-4.72-.07-1.34-.74-2.73-1.6-3.7-1.09-1.23-2.43-1.78-4.63-1.76-1.64,0-3.75.35-3.68-.16.05-.32.93-.97,1.67-1.53.07-.05.14-.09.19-.14.62-.46,1.09-.83,1.46-1.41.58-.93.88-2.34.56-3.33-.46-1.39-2.13-1.94-3.75-2.18-2.48-.32-4.84.16-7.73,1.32-2.62,1.02-5.69,2.59-5.79,1.92-.09-.56,1.78-2.62,3.47-4.24,2.66-2.57,4.86-4,7.11-5.12,2.06-1.04,4.14-1.78,6.55-1.99,2.25-.21,4.75.02,6.94,1.13,1.74.88,3.26,2.27,3.75,3.94.32,1.06.21,2.22-.05,3.5-.28,1.37-.72,2.89.42,3.73.6.46,1.64.72,1.94.42.32-.32-.23-1.3-.05-2.15.16-.65.72-1.23,1.16-1.13.37.07.65.69.67,1.3.05.67-.25,1.34.09,1.67.21.19.62.25.93.21.44-.09.69-.44,1-.86.42-.65.95-1.48,1.25-1.48.35.02.37,1.23.21,2.29-.16,1-.51,1.87.02,2.15.23.09.6.12.86.02.93-.25.83-1.62,1.18-2.59.32-.86,1.02-1.39,1.62-1.94,1.25-1.16,2.2-2.41,3.06-4.28.37-.88.74-1.87,1.3-2.06.69-.25,1.71.88,2.64,1.74,1.55,1.41,2.94,2.06,4.42,2.73,2.25,1.02,4.77,2.06,7.06,3.36,2.73,1.53,5.14,3.4,7.55,5.32.83.67,1.67,1.37,2.5,2.06Z"
         style="fill: #1c008a;"
         id="path2" />
      <path
         d="m460.75,426.18c.12.21.09.46-.09.62-.16.19-.42.23-.62.12-2.36-1.32-4.72-2.62-7.08-3.91-5.62-3.1-11.3-6.18-17.06-8.91-5.16-2.45-10.39-4.63-16.3-5.56-2.69-.42-5.49-.58-7.75.69-1.64.9-3.01,2.57-5.09,2.38-.93-.07-1.99-.53-2.48-.49-1.16.14,1.3,3.24,3.33,5.21,1.23,1.18,2.29,1.94,2.27,2.94-.02.67-.56,1.46-1.18,2.25-1.32,1.74-3.01,3.47-2.55,4.95.28.93,1.44,1.76,2.18,2.78,1.44,1.97,1.34,4.63,1.62,6.71.44,3.36,1.81,5.23,3.73,10.44.9,2.48,1.94,5.67,1.09,5.16-.37-.23-1.09-1.18-1.83-1.37-.67-.19-1.37.25-2.04.42-1.94.44-3.61-1.53-5.16-3.19-2.85-3.06-5.35-5.21-7.5-8.1-1.83-2.43-3.43-5.42-4.42-8.24-1.09-3.15-1.44-6.13-1.34-10.25.05-1.34.12-2.78-.93-3.19-.37-.16-.9-.16-1.2,0-.07.05-.14.09-.19.14l-5.56-4.1c3.26-3.5,6.67-7.01,9.56-10.21.79-.88,1.53-1.74,3.08-2.27,1.18-.39,2.82-.62,2.92-.23.07.3-.69.93-1.25,1.74-.74,1.13-1.06,2.62-.65,2.89.46.32,1.81-.76,2.73-1.71,1.87-1.99,1.87-3.45,3.38-5.69,1.44-2.15,4.24-5,5-3.91.39.58.25,2.18-.16,3.29-.44,1.23-1.18,1.81-1.76,3.17-.35.83-.65,1.94-.42,2.18.28.28,1.3-.72,2.13-1.6,1.76-1.85,2.73-3.19,4.37-3.45.53-.07,1.11-.05,1.74.02.23.02.44-.05.6-.23.16-.16.21-.39.16-.62-.09-.44-.19-.88-.25-1.32-.6-3.4-.53-6.92-.42-10.32.14-3.7.3-7.27.51-11.2.07-1.87.16-3.82-.28-5.44l6.39-.74c.74,2.08,1.32,4.31,1.85,6.55.9,3.7,1.69,7.57.51,11-.69,1.97-2.04,3.8-2.31,5.9-.28,2.31.76,5,2.48,6.55,2.69,2.48,7.01,2.15,10.67,2.96,2.43.53,4.58,1.6,7.18,1.81,1.78.14,3.8-.12,5.09.72,1.37.86,1.94,2.89,2.57,4.77,1.11,3.29,2.38,6.04,4.17,8.61,1.27,1.85,2.8,3.61,4.14,5.49.88,1.23,1.67,2.52,2.43,3.82Z"
         style="fill: #1c008a;"
         id="path4" />
      <path
         d="m423.67,326.59c.46,3.19-.05,6.64-1.27,9.75-1,2.57-2.48,4.88-4.84,6.53-1.57,1.11-3.56,1.92-4.35,3.33-.9,1.67-.19,4.17.72,6.37,1.92,4.65,4.68,7.94,6.57,11.83.56,1.16,1.06,2.36,1.48,3.61l-6.39.74c-.09-.32-.21-.62-.35-.93-.76-1.64-2.36-2.78-4.17-4.28-1.37-1.16-2.87-2.52-4-2.22-.97.25-1.71,1.76-2.55,3.01-2.43,3.59-5.76,5.14-9.17,6.71-2.48,1.11-4.95,2.25-7.45,3.38-.3.14-.65.05-.86-.21s-.21-.6,0-.88c1.57-2.06,3.19-4.1,5.07-5.93,1.94-1.9,4.14-3.56,5.81-5.67,2.2-2.75,3.54-6.27,4.79-9.51,1.99-5.12,3.84-9.58,6.83-15.28,1.27-2.43,2.73-5.12,1.78-6.94-.56-1.06-1.94-1.85-3.19-2.71-4.03-2.78-6.57-6.3-9.44-9.7-2.13-2.52-4.4-4.98-6.74-7.36l2.52-2.31c.93,1.04,2.04,2.11,3.7,3.29,2.38,1.69,5.9,3.59,5.79,2.69-.05-.46-1.02-1.64-1.9-2.59-1.46-1.55-2.66-2.48-3.89-3.56-2.11-1.85-4.26-4.14-6.57-6.32-1.06-1-2.15-1.97-3.22-2.94-1.64-1.53-3.19-3.03-4.37-4.61-1.37-1.76-2.25-3.59-4.44-5.51l2.82-.67c2.45,2.01,4.49,4.4,6.78,6.5,3.01,2.8,6.48,5.12,10,7.36,1.57.97,3.12,1.94,4.84,2.57,1.23.46,2.52.74,3.91.44.51-.12,1.02-.3,1.3-.58.86-.88-.44-2.73-1.74-4-1.97-1.99-3.89-2.57-5.81-3.45-2.34-1.02-4.7-2.45-7.18-3.75-2.43-1.3-4.98-2.5-7.15-3.59-1.81-.9-3.33-1.74-5.56-3.52-1.37-1.11-2.99-2.57-2.85-2.89.16-.32,2.34.65,4.1,1.39,3.15,1.34,5.02,1.97,7.2,2.69,3.54,1.18,7.85,2.57,11.94,3.84,1.71.53,3.4,1.04,5.05,1.53.35.12.67-.02.83-.35s.09-.67-.19-.88c-1.37-1.06-2.71-2.11-4.05-3.06-2.87-2.04-5.65-3.73-8.98-5.62-2.01-1.16-4.26-2.41-6.55-3.1-2.96-.93-6.04-.9-8.89-1.57-3.43-.81-6.5-2.57-9.65-4.19-4.26-2.18-8.61-4.05-12.5-6.69-.79-.56-1.57-1.11-2.34-1.71-2.27-1.78-4.42-3.75-6.57-5.67-2.78-2.48-5.58-4.86-8.45-7.2-3.98-3.22-8.1-6.32-12.59-8.73-3.56-1.92-7.38-3.4-11.18-4.88-2.75-1.09-5.51-2.18-8.4-2.8-3.61-.79-7.45-.88-11.06.35-1.25.42-2.45,1-3.66,1.04-1.25.02-2.52-.49-3.94-.19-.32.07-.67.16-.83.3-.65.53.83,1.53,2.22,2.2l-1.6,3.84c-2.13-.88-4.21-1.69-6.32-2.52-.44-.16-.88-.32-1.32-.51-4.03-1.53-8.15-3.06-12.43-4.56-2.92-1.04-5.93-2.06-8.89-2.92-1.2-.35-2.38-.67-3.61-.88l.39-2.31c.12,0,.23-.02.35-.02,1.2-.07,2.45-.65,3.33-1.48,1.27-1.18,1.81-2.89,2.41-4.7.72-2.18,1.55-4.51,1.3-6.41l3.87-.51c.05.3.07.62.09.93.07,1.25-.07,2.55.39,3.59.62,1.44,2.45,2.36,2.89,4.05.25.9.09,2.04.44,2.69.67,1.2,3.17.65,5.12.39,2.89-.42,4.54-.23,7.64-.19,1.18.02,2.59.05,2.8-.86.09-.39-.05-.95-.32-1.23-.39-.35-1.04-.21-1.67-.16-1.09.09-2.04-.14-2.96-.49-2.89-1.09-5.6-3.24-7.45-5.79-.35-.46-.65-.93-.93-1.41-1.02-1.74-1.78-3.59-2.73-5.46-1.27-2.55-2.87-5.14-2.71-7.73.19-2.64,2.18-5.3,2.34-8.03.07-1.46-.37-2.94-.6-4.42-.3-1.9-.28-3.8-.53-5.69-.25-1.92-.83-3.82-.97-5.72-.19-2.5.37-5.02.79-7.55.19-1.13.35-2.31.46-3.47l2.04.12c-.16,1.69-.25,3.4-.21,5.16.05,2.66.37,5.42,1.5,7.69,1.81,3.52,5.62,5.81,9.31,7.96,5.05,2.94,9.81,5.65,14.91,7.78,4.12,1.71,8.45,3.03,12.69,4.72,3.75,1.5,7.41,3.29,9.86,6.76.67.97,1.27,2.08,2.22,2.5.81.37,1.9.21,2.87.39,1.09.21,1.99.81,2.89,1.44,2.59,1.81,5.07,3.61,7.41,5.67,2.06,1.81,4,3.8,6.25,5.28,3.87,2.59,8.59,3.73,13.08,5.25,7.18,2.43,13.77,5.83,20.6,9.07,4.93,2.34,10,4.61,14.28,7.78,3.75,2.75,6.9,6.23,10.51,9.58,2.18,2.04,4.51,4,4.93,6.99.21,1.6-.12,3.5.6,4.54.76,1.09,2.64,1.27,4.31,1.9,2.06.81,3.82,2.29,4.14,4.1.37,2.04-1.09,4.51-.79,6.55.28,1.92,2.11,3.43,3.54,5.09.72.83,1.32,1.69,1.62,2.62.76,2.43-.79,5.28-.79,8.06,0,.86.14,1.69-.19,2.45-.23.51-.65,1-.76,1.44-.28,1.16,1.5,2.15,2.45,3.38,1.06,1.39,1.06,3.08.25,4.7s-2.31,3.1-1.94,4.14c.35,1,2.43,1.57,3.45,2.69.93,1.02.93,2.5,1.09,3.87.32,2.48,1.18,4.68,1.53,7.01Zm-32.31-50.86c.6-.88-.32-2.96-1.48-4.31-1.3-1.5-2.85-2.06-4.42-2.62-3.12-1.06-6.39-2.08-9.56-3.29-.83-.32-1.69-.65-2.52-1-4.1-1.67-8.06-3.59-12.01-5.51-3.66-1.76-7.29-3.54-10.95-5.3-.3-.14-.62-.07-.86.19-.21.25-.23.6-.02.88,2.22,2.96,4.56,5.81,7.38,8.12,2.01,1.64,4.28,3.03,6.71,3.98,1.74.67,3.54,1.11,5.23,1.92,2.22,1.06,4.21,2.78,6.25,3.98,3.38,1.99,6.85,2.59,11.92,3.29,1.78.25,3.75.51,4.33-.35Zm-8.22-15.88c.37-.72-.72-2.62-1.85-3.89-1.23-1.39-2.52-2.04-3.8-2.78-3.1-1.78-6.23-4.19-9.61-5.88-4.88-2.43-10.32-3.33-15.37-5.44-6.18-2.57-11.81-6.97-18.22-8.38-3.96-.88-8.22-.62-12.36-1.02-3.56-.32-7.01-1.16-10.46-2.08-.35-.09-.67.05-.83.37-.14.32-.05.67.23.88.37.28.76.51,1.16.74,2.71,1.57,6.02,1.94,9.07,2.92,3.54,1.11,6.74,3.01,10.07,4.61,1.32.65,2.66,1.25,3.91,1.99,2.25,1.32,4.21,3.12,6.46,4.4,2.11,1.18,4.44,1.9,6.83,2.71,4.88,1.67,9.86,3.7,14.21,5.25.07.02.12.05.19.07,4.61,1.62,8.54,2.71,15.39,4.88,2.13.69,4.54,1.48,4.98.65Z"
         style="fill: #1c008a;"
         id="path6" />
      <path
         d="m394.48,307.91l-2.52,2.31c-.76-.79-1.55-1.57-2.34-2.36-1.99-1.97-3.98-3.89-6.06-5.86-3.98-3.8-8.26-7.78-11.94-11-2.38-2.06-4.51-3.8-7.85-6.87-2.5-2.34-5.67-5.42-6.6-4.21-.51.62-.35,2.52-.28,4.19.19,3.89-.02,6.71.37,9.7.62,4.91,2.87,10.3,3.01,15.58.12,4.56-1.34,9.07-1.92,13.63-.81,6.32.09,12.8-.62,19.1-.49,4.1-1.64,8.15-1.87,12.31-.14,2.43.05,4.91.74,7.2,1.02,3.31,3.08,6.23,4.72,9.33,1.13,2.11,2.06,4.31,2.89,6.55.19.51,0,1.02-.46,1.27-.46.28-1.02.19-1.37-.23-.81-1-1.62-1.94-2.43-2.85-1.94-2.18-3.87-4.03-6.3-6.81-1.62-1.87-3.47-4.17-4.93-3.8-1.3.32-2.27,2.82-2.69,4.91-.39,2.11-.21,3.82-.76,5.58-.3,1.02-.86,2.04-.95,3.08-.09,1.2.42,2.41.6,3.61.39,2.34-.37,4.65-1.02,6.94-1.27,4.35-2.25,8.59-2.73,13.03-.37,3.24-.51,6.6.25,9.72.72,3.03,2.27,5.86,4,8.54,1.74,2.66,3.63,5.19,6.2,6.99,1.74,1.25,3.8,2.15,5.62,2.94,2.59,1.09,4.77,1.9,8.17,3.5,1.81.83,3.96,1.9,4.63.83.25-.39.3-1.09.37-1.74.14-1.16.42-2.13.83-3.06.88-2.04,2.38-3.89,3.89-5.67,2.66-3.17,5.25-6.13,8.06-9.17.46-.49.93-1,1.39-1.48l5.56,4.1c-.44.46-.12,1.55.09,2.55.6,2.99.12,5.02-.14,7.27-.35,2.82-.35,5.93,1.25,9,.46.86,1.04,1.74.88,2.41-.19.76-1.32,1.27-2.08,1.99-1.04,1.02-1.34,2.41-1.5,3.77-.32,2.8-.16,5.44-.46,8.29-.21,2.11-.69,4.33-.19,6.11.28,1.02.88,1.92,1.11,3.31.3,1.74.05,4.24-.46,4.31-.51.09-1.3-2.5-2.48-3.77-.9-1-2.04-1.18-3.24-1.32-2.08-.25-4.37-.28-5.88-1.53-1.76-1.46-2.43-4.58-4.14-5.79-1.46-1.06-3.68-.72-6-1.09-3.17-.51-6.57-2.29-8.17-1.25-.95.62-1.25,2.22-2.31,4.28-.83,1.62-2.13,3.5-2.38,3.01-.12-.28.09-1.3.25-2.15.23-1.2.39-2.06.49-3.01.12-1.27.12-2.73-.28-4.05-.62-2.22-2.27-4.05-4.17-5.42-2.55-1.83-5.53-2.87-8.36-3.61-3.59-.93-6.92-1.37-11.27-2.18-1.78-.32-3.75-.69-4.75-.09-1.64,1.02-.58,4.84-.21,7.94.42,3.33.05,5.83.44,8.54.39,2.87,1.67,5.97,4.35,7.96,1.64,1.2,3.8,1.99,4.12,3.63.09.62-.05,1.37-.23,2.04-.65,2.15-1.87,3.73-2.87,5.62-1.04,1.97-1.85,4.31-1.46,6.25.32,1.57,1.41,2.87,1.69,4.98.23,1.71-.05,3.96-.69,4.44-1,.74-2.82-2.85-4.63-5.16-1.83-2.34-3.61-3.38-5.72-4.07-2.27-.74-4.93-1.06-7.41-1.16-3.26-.12-6.25.16-9.86.83-1.06.21-2.18.44-3.19.83-1.06.44-2.04,1.06-2.52.49-.35-.42-.46-1.5-.76-2.34-.81-2.2-2.99-2.85-4.95-3.36-3.84-1-6.94-1.48-10.3-1.53-2.85-.02-5.9.28-10.42,1.11-4.47.81-10.39,2.15-9.95,1.32.23-.44,2.18-1.46,3.96-2.31,3.43-1.64,6.23-2.64,9.12-3.87,2.94-1.25,5.97-2.71,9-3.63,3.96-1.23,7.96-1.55,12.78-.07,1.71.53,3.54,1.3,4.03.25.44-.95-.23-3.38,0-4.24.42-1.48,3.8,2.18,6.18,4.4,2.41,2.25,3.82,3.01,6.3,4.12,2.62,1.18,6.46,2.78,7.13,1.13.28-.65.05-1.81-.39-2.78-1.06-2.45-3.4-3.77-5.05-5.69-1.27-1.53-2.13-3.45-2.06-5.9.05-1.5.42-3.24-.42-3.8-.62-.44-1.92-.23-2.78-.56-1.09-.42-1.46-1.71-2.08-2.94-.9-1.85-2.34-3.63-3.82-3.73-.97-.07-1.97.58-3.29,1.16-1.9.81-4.47,1.44-4.86,1.02-.49-.49,2.13-2.45,4.19-4.19,1.6-1.34,2.87-2.52,2.73-3.7-.14-1.23-1.81-2.45-3.22-3.59-2.04-1.64-3.52-3.1-5.19-4.49-1.71-1.44-3.61-2.8-5.81-3.87-1.53-.72-3.17-1.27-4.72-1.71-1.13-.3-2.22-.56-3.4-.65l.28-2.94c3.61.32,7.18,1.32,10.56,2.64,3.52,1.37,6.85,3.06,10.05,4.98,1.57.95,3.12,1.97,4.65,2.99.25.19.58.19.83-.02.25-.19.35-.49.23-.79-.79-2.41-1.37-4.79-.93-7.2.42-2.2,1.69-4.37,1.53-6.5-.12-1.3-.74-2.57-1.3-3.87-1.34-3.17-2.11-6.39-3.22-9.54-1.46-4.19-3.54-8.26-6.25-11.81-.56-.72-1.11-1.41-1.71-2.11-.35-.39-.35-.93-.02-1.37.32-.42.86-.51,1.34-.25.67.35,1.34.74,1.97,1.16,2.36,1.55,4.44,3.54,6.32,5.72,2.99,3.45,5.46,7.41,7.92,11.02,1.62,2.38,3.22,4.63,4.61,7.73.46.97.88,2.04,1.6,2.38,1.02.46,2.64-.51,4-.19.76.16,1.44.74,2.11.69.49-.05.95-.39,1.41-.72,1.83-1.34,3.56-2.43,4.77-4.03,1.41-1.83,2.13-4.28,2.55-6.69.74-4.35.46-8.47.42-12.92-.05-4.03.12-8.31-1.78-11.6-1.37-2.38-3.77-4.26-6.37-5.62-2.5-1.34-5.16-2.2-7.85-2.45-.93-.09-1.87-.09-2.82-.05l-.12-2.64c1.71-.09,3.43-.21,5.16-.42,6.18-.69,12.43-2.22,17.22-5.9,4.51-3.47,7.71-8.87,9.31-14.4,1.27-4.35,1.55-8.77,1.85-13.29.83-12.66,1.85-25.93,0-38.56-1.13-7.64-3.29-15.05-6.13-22.13-2.13-5.25-4.63-10.35-8.82-14.65-2.25-2.34-5.02-4.47-7.85-5.95-.46-.23-.95-.14-1.27.23-.35.37-.39.86-.14,1.27.69,1.11,1.39,2.25,2.04,3.38,1.2,2.15,2.31,4.37,3.08,6.69,1.39,4.17,1.67,8.59,1.99,13.12.42,5.9.93,11.99-1.18,17.25-.86,2.13-2.15,4.12-3.43,6.11-.19-1.04-.37-2.08-.83-3.01-.37-.76-.95-1.44-1.55-2.06-1.55-1.64-3.38-3.03-5.39-3.89-3.89-1.64-8.43-1.25-12.92-.53-5.46.88-10.86,2.2-14.65,5.56-2.43,2.13-4.19,5.12-5.97,8.1-.62-.16-1.25-.32-1.9-.46-1.9-.39-3.84-.65-5.86-.28-2.96.53-6.06,2.36-8.33,4.33-2.43,2.08-3.91,4.33-5.32,6.64-2.92,4.84-5.42,9.98-6.92,16.09-.65,2.69-1.13,5.58-1.34,8.54l-3.84-.28v-.14c.21-2.57.49-5.16.23-7.78-.42-4.44-2.36-8.91-4.86-12.89-2.52-4-5.6-7.52-9.05-10.39-2.62-2.2-5.44-4.03-8.82-5.02-2.36-.72-5-1.02-7.29-.28-1.83.6-3.43,1.85-4.86,3.22-1.99,1.92-3.63,4.03-5.3,6.16-1.16-2.41-2.31-4.81-3.63-7.22-1.34-2.45-2.85-4.91-4.95-6.67-2.31-1.92-5.37-2.99-8.4-3.52-3.7-.65-7.36-.44-11,.3-4,.81-7.96,2.29-11.37,4.51-2.15,1.41-4.05,3.1-5.97,4.77-1.46-2.45-2.94-4.91-3.91-7.55-2.06-5.58-1.97-11.9-1.09-17.99.9-6.18,2.62-12.13,5.46-17.48,1.74-3.22,3.87-6.25,6.02-9.26-3.56,1.92-7.13,3.84-10.74,5.65-7.52,3.8-15.28,7.11-23.12,10.25-6.71,2.71-13.47,5.3-20.39,7.38-7.45,2.25-15.07,3.89-22.66,5.74-5.72,1.39-11.41,2.89-16.76,5.58-2.22,1.11-4.4,2.43-6.83,2.82-1.39.23-2.85.16-4.21.42-2.94.6-5.3,2.89-8.17,4.33-.28.14-.56.25-.83.39l-1.85-3.47c5.19-2.75,9.91-5.65,15.02-8.01,3.77-1.76,7.78-3.22,11.83-4.51,2.34-.74,4.68-1.41,7.01-2.06,8.01-2.25,16.02-4.17,23.82-6.76,6.87-2.27,13.59-5.09,20.19-8.12,4.91-2.25,9.75-4.63,14.72-6.69,5.02-2.08,10.19-3.84,15.19-6.02,2.04-.88,4.05-1.85,6.06-2.85.32-.16.46-.49.35-.83-.09-.35-.42-.56-.76-.51-.97.14-1.92.3-2.87.46-4.28.76-8.47,1.97-12.73,3.08-2.66.69-5.37,1.37-7.87,2.5-2.31,1.06-4.47,2.55-6.74,3.8-4.1,2.22-8.59,3.66-13.08,4.93-4.12,1.18-8.22,2.22-12.5,2.64-1.9.19-3.82.25-5.62.74-3.91,1.02-7.18,4-10.79,6.09-2.43,1.41-5.02,2.43-7.64,3.33-4.75,1.64-9.61,2.96-14.31,4.72-4.21,1.55-8.26,3.47-12.55,5.07-2.66,1.02-5.42,1.92-7.75,3.47-2.06,1.39-3.77,3.31-5.62,5.02-1.99,1.83-4.12,3.4-6.46,4.77-2.13,1.23-4.42,2.29-6.23,3.84-2.38,2.04-3.94,4.98-5.44,7.96-1.09,2.15-2.15,4.33-2.59,6.44-.3,1.46-.32,2.87-.79,4.72-.21.76-.51,1.62-.39,2.22l-6.9.56c-.32-2.08-.67-4.12-1.46-6.23-.44-1.11-.97-2.25-.93-3.26.09-1.78,1.92-3.24,3.29-4.86.67-.79,1.23-1.62,1.44-2.48.53-2.08-.86-4.42-2.11-6.55-.76-1.37-1.5-2.66-1.57-4.07-.07-1.48.58-3.1,1.85-4.19,1.02-.88,2.48-1.41,2.96-2.31.53-1.02-.07-2.5-.42-4.14-.44-2.18-.42-4.63,1.16-5.37.51-.23,1.16-.28,1.64-.58.81-.46,1.2-1.57,1.25-2.55.07-1.64-.74-2.96-1.5-4.42-.6-1.13-1.18-2.36-1.16-3.5.02-2.01,1.97-3.8,3.66-5.44,2.06-2.01,3.77-3.87,5.32-5.9,3.52-4.56,6.3-10.12,10.28-15.19,4.65-5.9,10.97-11.13,17.08-14.21,4.49-2.22,8.87-3.31,13.63-4.14,4.56-.83,9.47-1.44,14.1-3.06,4.19-1.48,8.15-3.8,11.76-6.53,5.37-4.07,9.95-9.1,15.32-12.94,5.74-4.12,12.41-6.9,19.14-9.31,6.37-2.27,12.8-4.21,18.98-6.83,3.59-1.53,7.11-3.29,10.23-5.79,2.31-1.87,4.42-4.14,5.49-6.78,1.34-3.26,1.06-7.08,1.2-10.79.21-5.65,1.37-11.06,1.41-16.5.05-4.79-.79-9.63-1.2-14.56-.28-3.19-.39-6.41-1.62-9.33-.88-2.13-2.36-4.1-3.03-6.32-.88-2.89-.39-6.23-.09-9.37.58-5.67.56-10.76.74-16.02.19-5.67.6-11.55.76-17.41.19-6.16.12-12.31.32-18.45.21-5.56.67-11.09,1.32-16.6.67-5.72,1.55-11.39,2.75-17.04l2.45.53c-.53,2.45-.88,4.95-1.18,7.45-.58,4.68-.95,9.33-1.32,14-.49,6.16-.93,12.34-.83,18.5.12,7.38,1,14.77,1.11,22.15.14,8.31-.72,16.64-.62,24.95.07,5.81.62,11.6,1.53,17.34.58,3.63,1.32,7.25,2.31,10.79.79,2.82,1.74,5.6,2.78,8.36,1.44,3.73,3.06,7.36,4.49,11.09l-2.15.88c-1.2-3.1-2.66-6.06-4.07-9.05-.42,2.01-.83,4.03-1.13,6.06-.86,5.32-1.04,10.74-1.41,16.16-.14,2.13-.32,4.24-.14,6.32.25,2.69,1.09,5.32,2.41,7.69,1.11,2.06,2.59,3.87,3.82,5.83,2.66,4.21,4.19,9.1,6.46,13.54,2.41,4.7,5.62,8.96,9.19,12.94,2.94,3.26,6.11,6.37,9.72,8.68,2.52,1.62,5.25,2.85,8.19,4,2.27.9,4.65,1.74,6.92,1.37.79-.12,1.55-.42,2.29-.79l1.02,2.2c-2.15.95-4.24,2.18-6.34,3.31-6.18,3.29-12.66,5.6-17.94,7.75-2.57,1.06-4.84,2.08-8.45,3.54-2.04.81-4.49,1.76-7.04,2.45-1.16.32-2.34.6-2.82,1.11-.97,1.04.88,3.03,2.55,4.65,4.49,4.35,7.66,6.13,11.48,7.85,3.75,1.69,8.12,3.29,12.73,4.21,4.51.88,9.24,1.09,13.52.44,2.94-.44,5.67-1.27,9.26-1.39,1.27-.05,2.66,0,3.29-.65.67-.69.42-2.27.46-3.68.09-2.69,1.27-4.81,1.6-6.92.35-2.11-.14-4.17-.28-7.06-.09-1.44-.07-3.03.25-3.45.69-.83,2.71,3.08,4.05,5.53.88,1.57,1.48,2.52,1.71,3.63.05.21.07.39.16.53.35.49,1.5.39,2.43.35,1.11-.05,1.94-.07,3.01.02.81.07,1.74.19,2.15-.16.49-.42.35-1.41.3-2.25-.09-1.92.3-3.1.69-5.02.28-1.37.58-3.08,1-3.26.56-.21,1.37,2.11,1.99,4.1,1.34,4.31,1.92,7.25,2.57,10.09.28,1.3.58,2.57.93,4.19.19.9.37,1.9.97,2.52.69.76,1.9,1.04,3.03,1.27,2.71.56,4.81.88,7.13,1.16,5.12.6,11.23.88,16.69-.49,3.45-.86,6.62-2.36,9.56-4.37,2.04-1.41,3.96-3.06,5.25-5.07.81-1.25,1.37-2.64,1.76-4.19.39-1.67.58-3.52-.09-4.86-.74-1.44-2.5-2.31-4.19-3.12-3.52-1.67-6.81-3.1-10.02-4.42l1.6-3.84c.16.09.32.16.49.23,1.71.76,2.85.79,4.12.79,2.13,0,4.63-.05,7.04-.05,2.87,0,5.62.09,8.26.69,5.05,1.13,9.63,4.19,14.24,6.9,1.13.65,2.27,1.3,3.4,1.94,2.06,1.16,4.12,2.29,6.18,3.47,3.56,2.06,7.06,4.24,10.51,6.53,2.99,1.97,5.9,4,8.7,6.18.14.09.28.21.39.3,2.69,2.13,5.23,4.33,7.64,6.44,1.32,1.13,2.62,2.22,4.1,3.29,1.97,1.37,4.31,2.71,6.78,3.63,1.06.39,2.15.74,2.78,1.5.37.46.56,1.09.88,1.62.81,1.32,2.41,2.04,3.82,2.87.95.58,1.81,1.2,2.62,1.87l-2.82.67c-.3-.28-.65-.56-1.02-.83-2.59-1.97-6.74-4-6.62-3.15.07.53,1.67,2.08,2.94,3.29,1.18,1.13,2.06,1.94,3.03,2.82.97.9,2.08,1.85,3.12,2.82,2.08,1.94,3.98,4,5.88,6.04,1.81,1.87,3.63,3.75,5.07,5.51.86,1.02,1.57,2.04,2.5,3.06Zm-198.15-69.51c.46-.25.67-.72.53-1.23-.14-.49-.58-.81-1.09-.76-3.15.16-6.32.32-9.47.46-5.62.25-11.27.42-16.83,1.02-3.26.35-6.48.86-10.02,1.23-4.86.51-10.32.74-14.75.12-3.19-.46-5.86-1.41-8.68-2.06-5.44-1.27-11.48-1.46-17.82-1.46-1.09,0-2.2,0-3.29.02-8.82.07-18.08.28-26.64,2.43-6,1.5-11.64,3.96-17.31,6.57-2.57,1.2-5.12,2.43-7.27,4.14-1.06.88-2.04,1.87-2.96,2.71-1.23,1.11-2.41,1.97-3.84,3.01-.86.6-1.83,1.3-1.83,1.9-.02.88,1.97,1.6,3.66,1.78,2.31.28,4.03-.46,6-1.04,2.64-.79,5.74-1.3,8.68-2.06,3.91-1.04,7.55-2.5,11.06-4.28,2.96-1.5,5.83-3.24,8.84-4.68,2.85-1.37,5.81-2.45,8.8-3.52,2.41-.83,4.81-1.64,7.48-1.53,1.97.09,4.07.69,5.65-.05.6-.3,1.13-.79,1.92-1,.35-.09.72-.14,1.09-.14.53,0,1.04.09,1.23.25.65.51-1.94,1.67-3.96,2.41-2.8,1.04-4.47,1.3-6.2,1.71-2.22.51-4.58,1.3-7.71,2.69-2.11.93-4.56,2.15-4.81,2.69-.46.88,5-.09,9.05-.6,4.7-.6,7.55-.56,10.65-.6h1.18c3.5-.07,7.62-.28,11.48-.97,2.82-.49,5.49-1.25,8.22-1.57,4.47-.56,9.1-.05,13.63-.53,3.61-.39,7.15-1.44,10.76-1.69,4.26-.28,8.59.53,12.82.21,2.57-.21,5.09-.86,7.66-1.41,4.86-1.06,9.88-1.87,14.1-4.17Zm-37.62,11.34c.32-.12.51-.42.44-.76-.05-.35-.32-.6-.67-.6-2.38-.07-4.75-.07-7.11.14-5.05.44-10,1.78-15,2.55-3.47.56-6.99.79-10.53,1.09-1.5.14-3.03.28-4.44.69-2.5.74-4.72,2.31-7.2,3.15-1.9.65-3.94.86-5.81,1.48-2.71.9-5.05,2.71-7.5,4.24-4.17,2.57-8.68,4.35-13.17,6.04-5.6,2.08-11.18,4.03-17.04,5.86-4.42,1.39-8.98,2.73-13.12,3.59-3.52.72-6.71,1.11-11.04,3.47-1.87,1.04-3.98,2.45-4.49,3.06-1.13,1.41,6.44-1.5,11.97-3.26,7.27-2.31,10.95-2.59,15-4.17,3.66-1.41,7.64-3.91,13.22-4.77,1.16-.19,2.38-.28,2.89-.19,1.64.28-3.84,2.57-8.15,4.26-9.19,3.63-12.94,4.61-18.59,6.37-3.36,1.02-7.36,2.31-10.86,4.07-2.25,1.11-4.28,2.43-6.76,3.17-1.76.51-3.73.74-5.05,1.69-1.6,1.16-2.22,3.36-2.57,5.9-.16,1.3-.28,2.64,0,3.22.72,1.55,4.07-2.55,6.94-5.12,3.52-3.15,6.32-3.96,9.35-5.02,5.42-1.92,11.62-4.68,17.69-7.04.67-.25,1.32-.51,1.99-.76,7.2-2.73,14.26-5.02,21.09-8.08,4.24-1.9,8.4-4.1,12.64-6.06,2.45-1.13,4.95-2.2,7.48-3.12,6.25-2.29,12.8-3.7,19.12-5.76,5.09-1.64,10.05-3.7,15.19-5.19,3.12-.9,6.34-1.6,9.44-2.55,1.57-.46,3.12-1,4.65-1.57Zm-55,3.96c.35-.16.49-.51.37-.86s-.42-.56-.79-.49c-2.59.44-5.21.74-7.87.76-2.29,0-4.61-.21-6.78.19-2.8.49-5.39,1.94-8.03,3.19-4.1,1.97-8.31,3.45-12.55,4.65-2.87.81-5.74,1.48-8.61,2.25-2.2.58-4.4,1.23-6.3,2.15-2.59,1.25-4.63,3.03-6.94,5.97-1.92,2.43-4,5.65-3.06,6.62.53.56,2.08.39,3.52.12,2.48-.49,4.68-1.25,6.97-2.08,2.64-.97,5.44-2.01,8.29-3.1,1.97-.74,3.96-1.5,5.93-2.25,6.2-2.38,12.2-4.68,17.96-7.64,3.47-1.78,6.87-3.8,10.35-5.65,2.5-1.34,5.02-2.62,7.55-3.84Z"
         style="fill: #1c008a;"
         id="path8" />
      <path
         d="m381.47,489.44c.39,1.06.79,2.22.6,3.12-.21.93-1.06,1.55-1.78,2.25-1.83,1.81-2.78,4.12-3.59,6.6-.88,2.71-1.6,5.62-2.06,8.22-.19,1.11-.32,2.18-.39,3.61-.09,2.01-.05,4.72-.42,5.05-.49.44-1.71-3.31-2.48-6.2-1.06-3.96-1.23-6.25-2.66-8.75-.76-1.32-1.85-2.69-2.15-4.24-.35-1.74.3-3.73,1.37-5.25.74-1.02,1.64-1.85,1.99-2.92.51-1.62-.3-3.8-1.34-5.39-.93-1.41-2.01-2.34-3.03-3.33-.81-.81-1.55-1.64-2.69-1.74-1.04-.07-2.41.53-3.56,1.18-1.74,1.02-2.92,2.13-4.1,3.47-1.18,1.3-2.31,2.82-2.69,4.54-.35,1.46-.12,3.08-.14,4.51-.05,2.11-.65,3.89-.69,6.69-.02,1.18.07,2.55-.44,2.96-.53.44-1.74-.19-2.82-.3-1.57-.19-2.92.67-4.05,1.64-1.69,1.39-2.89,2.99-3.84,4.86-.81,1.55-1.41,3.29-1.92,5.02-.19.58-.37,1.16-.53,1.76-.09.35-.39.56-.76.51-.35-.05-.6-.32-.62-.69-.05-1.71-.12-3.47-.14-5.25-.07-5.23.05-10.72,1.64-15.49,1.16-3.47,3.1-6.57,5.42-9.42,2.94-3.59,6.5-6.76,10.35-9.47,1.69-1.18,3.45-2.27,5.28-3.38.58-.35,1.2-.69,1.85-.83.95-.19,1.99.12,2.92-.05,1.25-.23,2.29-1.27,3.01-2.34.81-1.18,1.23-2.41,2.59-3.19.25-.14.56-.28.74-.28.76-.02.3,1.69-.05,2.78-.19.58-.32.97-.37,1.39-.07.49,0,1,.32,1.11.39.16,1.16-.21,1.62-.67.58-.6.56-1.37.81-2.45.23-.9.62-2.04,1-2.22.58-.3,1.16,1.53,1.32,3.03.25,2.13-.28,3.63-.42,5.28-.09.9-.05,1.83.23,2.71.53,1.67,1.92,3.12,3.06,4.61.35.46.67.95,1,1.44,1.02,1.62,1.83,3.38,2.64,5.53Z"
         style="fill: #1c008a;"
         id="path10" />
      <path
         d="m314.48,373.58l.12,2.64c-2.41.09-4.86.53-7.34.86-5.28.74-10.58,1.09-15.76.25-3.45-.53-6.85-1.6-10.28-2.06-3.43-.44-6.87-.32-10.44.14-3.7.46-7.55,1.3-10.19,3.61s-4.07,6.09-4.58,9.72c-.56,3.96-.02,7.73.19,11.67.28,5.58-.12,11.46,2.34,16.41.9,1.81,2.18,3.5,3.77,4.72,1.83,1.37,4.07,2.15,6.32,2.52,3.5.6,7.04.21,10.51.46.28.02.58.05.86.09l-.28,2.94c-.49-.05-1-.07-1.53-.05-1.25.02-2.59.23-3.82.62-1.16.39-2.18.95-2.85.42-.25-.19-.46-.56-.86-.79-.88-.56-2.75-.49-3.17.19-.3.46.09,1.23.25,2.08.12.67.09,1.37-.28,1.57-.49.25-1.6-.39-2.06-.37-.74,0,.25,1.71,1.23,3.15.93,1.34,1.83,2.45,1.44,2.85-.39.37-2.13.02-3.17.49-.79.32-1.2,1.11-1.39,1.94-.32,1.48.16,3.08.74,4.33.72,1.53,1.57,2.57,2.99,4.7,1.23,1.85,2.87,4.58,2.06,4.56-.35,0-1.11-.49-1.78-.93-2.15-1.41-3.56-2.55-5.12-3.8-1.5-1.23-3.12-2.57-4.19-4.37-.65-1.16-1.09-2.5-1.85-3.45-1.57-2.06-4.54-2.43-7.18-2.66-3.63-.3-6.62-.32-10.07.42-3.31.72-7.04,2.15-10.42,4-2.55,1.41-4.91,3.06-6,5.25-.37.72-.6,1.53-.6,2.55.02,1.99.88,4.88.16,5.05-.46.09-1.6-.95-2.5-2.15-.81-1.09-1.44-2.31-2.08-2.2-.79.16-1.62,2.38-2.66,2.62-.58.12-1.25-.39-1.85-.95-1.25-1.16-2.2-2.41-3.29-2.31-1.57.16-3.5,3.12-5.32,3.5-.79.16-1.55-.14-2.57-.21-.86-.02-1.87.12-2.8.39-1.55.49-2.82,1.37-2.5,2.5.16.6.76,1.25.83,1.92.07.49-.19,1-.42,1.46-.9,1.69-1.69,2.92-3.22,5.09-1.34,1.92-3.29,4.61-3.73,4.07-.02-.05-.07-.12-.07-.19-.14-.72.37-2.82.49-4.44.16-1.92-.21-3.17-.51-4.49-.56-2.55-.86-5.42-3.03-7.69-.93-.95-2.2-1.81-2.27-2.71-.07-1.06,1.6-2.22,2.43-3.59,1.09-1.81.81-4,.39-5.83-.53-2.55-1.3-4.4-2.64-6.32-1.6-2.27-4.03-4.65-6.27-6.74-1.92-1.76-3.7-3.29-5.74-4.58-1.02-.67-2.13-1.27-3.5-1.41-1.48-.16-3.31.21-4.98.56-3.5.74-6.23,1.39-9.05,2.25-3.43,1.06-6.97,2.43-10.02,4.77-2.38,1.83-4.49,4.26-5.58,6.71-1.04,2.34-1.16,4.7-.44,8.38.25,1.27.6,2.71-.16,2.92-.05.02-.12.02-.19.02-.32,0-.74-.14-1.02-.37-.74-.56-.58-1.62-.67-2.57-.16-1.71-1.18-3.01-2.06-4.31-1.48-2.13-2.66-4.26-5.23-5.93-1.41-.9-3.22-1.69-3.29-2.82-.02-.74.65-1.6,1.09-2.52.65-1.25.86-2.57.51-3.75-.39-1.27-1.46-2.38-2.73-3.1-2.38-1.39-5.46-1.46-7.78-.21-1.46.79-2.59,2.11-3.31,3.59-.76,1.57-1.04,3.36-.76,5.14.19,1.13.58,2.27.02,3.26-.39.67-1.23,1.3-1.18,1.87.02.44.51.83.86,1.37.49.76.67,1.78.21,2.31-.32.37-.95.49-1.55.53-2.06.19-3.87-.23-5.51.32-1.99.67-3.7,2.75-4.7,4.75-.74,1.5-1.06,2.96-.86,4.95.14,1.44.56,3.12-.49,3.56-.35.14-.86.14-1.18,0-.86-.37-.74-1.71-.83-2.85-.14-1.57-.69-2.8-.6-4.03.12-1.71,1.46-3.47,1.67-5.35.19-1.78-.62-3.68-1.6-5-1.18-1.57-2.59-2.36-3.87-4.86-.83-1.64-1.57-3.98-2.08-3.45-.21.25-.37,1.02-.49,1.67-.23,1.18-.35,1.92-.14,3.12.25,1.44,1,3.52.25,3.7-.65.19-2.45-1.16-3.22-.9-.69.25-.44,1.92-.19,3.12.28,1.32.58,2.11,1.06,3.22,1.06,2.38,3.08,6.3,2.38,6.87-.65.56-3.61-1.74-5.86-3.33-2.66-1.92-4.28-2.87-5.95-5.44-.62-.97-1.27-2.15-2.06-2.11-.69.05-1.5,1-2.15,1.09-.95.16-1.53-1.55-2.57-3.1-1.18-1.81-2.96-3.4-3.43-3.06-.53.42.76,3.56.3,4.56-.56,1.18-3.63-.76-5.86-2.34-2.62-1.9-3.98-3.24-5.35-5.12-1.3-1.78-2.59-4.05-3.73-6.13-2.52-4.65-4.24-8.52-7.25-14.28-.76-1.46-1.62-3.08-2.52-3.24-1.2-.21-2.45,2.18-3.94,3.75-1.13,1.25-2.38,1.99-2.78,2.89-.32.69-.12,1.48-.37,2.52-.32,1.37-1.41,3.19-2.31,3.43-1.41.39-2.31-2.99-2.64-5.81-.19-1.62-.16-3.06-.9-3.96-.37-.49-.95-.81-1.5-.93-.88-.16-1.67.23-2.85.51-1.9.49-4.81.72-5.16-.37-.23-.81.88-2.29,1-3.7.12-1.23-.53-2.38-1.41-3.06-1.81-1.39-4.61-.69-6.94.25-3.4,1.41-5.86,3.4-8.12,5.72-1.39,1.41-2.69,2.94-3.96,4.51-.19.21-.46.25-.69.12-.25-.14-.32-.42-.21-.67.9-1.97,1.74-3.19,2.52-4.44,1.57-2.5,2.94-5.14,4.42-7.69,1.2-2.08,2.48-4.12,3.96-6.02.46-.58.93-1.16,1.23-1.81.62-1.39.39-3.12.3-4.79-.21-3.36.07-6.44.58-9.7.35-2.31.81-4.75,2.34-6.5,1.3-1.53,3.4-2.57,4.28-4.21.81-1.5.62-3.52.81-5.42.14-1.16.39-2.27,1.23-3.08.42-.42.97-.74,1.23-1.13.6-1-.88-2.38-2.04-3.73-1.67-1.94-2.64-3.82-2.31-5.69.25-1.55,1.44-3.1,2.04-4.72,1.3-3.5-.07-7.38-.83-11.06-.25-1.27-.44-2.52-.62-3.77l6.9-.56c.02.25.14.46.32.6.32.23.97.28,1.44.12.97-.3,1.27-1.46,1.64-2.52,1.34-3.77,3.84-6.2,6.44-8.7,2.43-2.34,4.93-4.75,6.41-7.8.67-1.39,1.13-2.89,1.92-4.14,1.74-2.71,5-4.21,8.08-5.79.79-.39,1.55-.79,2.29-1.2l1.85,3.47c-1.94.86-4.03,1.48-5.44,2.85-1.32,1.27-2.08,3.22-2.89,5.05-1.44,3.31-3.06,6.3-4.72,9.35-1.62,2.94-3.31,5.9-4.05,9.19-.51,2.18-.6,4.49-.21,6.67.9,4.91,4.26,9.07,7.48,13.06,3.31,4.1,6.46,7.96,9.88,11.87,1.62,1.83,3.31,3.66,5.35,4.88,1.11.65,2.31,1.13,3.54,1.62-1.11.53-2.25,1.04-3.33,1.13-2.2.21-4.37-1.25-6.44-2.64-2.38-1.6-4.63-3.12-5.97-5.46-.65-1.13-1.09-2.43-1.87-3.45-1.06-1.34-2.75-2.15-4.28-3.08-1.76-1.06-3.26-2.31-4.91-3.63-.39-.32-.79-.65-1.18-.83-2.22-.97-4.84,2.06-6.18,4.84-1.57,3.33-1.34,6.3-.88,9.31.79,5.09,2.25,10.37,4.7,15.07,2.71,5.16,6.64,9.63,11.04,13.38,4.72,4,9.98,7.18,14.81,11.23,2.31,1.94,4.54,4.1,7.59,4.7,1.34.25,2.85.23,3.82.83.6.35,1.02.97,1.76,1.64.51.44,1.13.93,1.37.81.25-.14.02-.97-.23-1.69-.9-2.48-2.06-3.52-3.08-5.02-1.2-1.78-2.18-4.17-3.29-6.11-.65-1.16-1.34-2.13-1.99-3.63-.37-.88-.72-1.94-.12-2.43.16-.14.39-.23.6-.25,1-.16,1.6,1.04,2.2,2.13,1.76,3.1,3.4,5.07,5.19,7.29,1.55,1.94,3.22,4.07,5.19,5.79,1.74,1.53,3.73,2.73,5.67,3.98,1.41.93,2.8,1.87,4.19,2.82-.65-1-1.3-1.97-1.94-2.99-.83-1.27-1.64-2.59-2.41-3.94-.58-1.02-1.11-2.08-1.83-3.08-.39-.58-.86-1.16-.86-1.9.02-.37.14-.76.3-.95.51-.6,1.5.76,2.38,1.92,2.92,3.82,4.56,5.46,6.97,7.34,1.76,1.39,3.96,2.92,6.46,3.66,3.73,1.09,8.12.39,11.25-1.04.97-.44,1.81-.95,3.06-1.04,1.06-.09,2.41.12,3.03-.35.79-.58.49-2.13.39-3.5-.14-2.18.3-3.82.02-5.58-.21-1.48-.93-3.01-1.18-4.61-.37-2.22.16-4.49-.07-6.69-.02-.28-.07-.53-.12-.81l6.64-1.62c.42,1.94.97,3.87,1.74,5.69,1.64,3.84,4.35,7.22,7.13,10.46,1.94,2.31,3.94,4.56,6.27,6.41,2.55,2.01,5.49,3.54,8.89,4.58,5.44,1.67,12.06,2.08,17.13-.23,2.87-1.32,5.23-3.5,7.71-5.37,4.33-3.24,8.96-5.53,13.22-7.89,5.74-3.17,10.79-6.48,16.97-8.52,2.78-.93,5.79-1.57,8.87-2.18.35-.05.65.12.79.44.14.35.02.67-.28.88-.86.53-1.69,1.06-2.5,1.64-2.38,1.71-4.54,3.66-6.81,5.62-3.63,3.15-7.59,6.34-9.28,10.6-1.02,2.55-1.25,5.46-1.18,8.31.07,4.35.81,8.56,1.9,12.69.95,3.52,2.13,6.99,3.36,10.44.07.21.23.37.44.44s.42.05.6-.07c2.52-1.64,5.05-3.19,7.8-4.21,1.81-.65,3.73-1.06,5.72-1.2,1.41-.09,2.87-.05,4.17-.14,2.27-.21,4.03-.88,6.87-2.52,1.53-.88,3.4-2.04,3.75-1.23.19.44-.07,1.44-.46,2.06-.3.49-.69.74-1.16,1.16-.95.9-2.18,2.57-1.94,2.85.21.23,1.55-.65,2.73-1.32,3.1-1.78,5.05-2.25,7.45-2.87,2.15-.56,4.68-1.23,6.6-2.62,2.36-1.69,3.82-4.42,4.95-7.01.81-1.85,1.44-3.61,1.94-5.56.81-3.15,1.27-6.76,1.67-10.25.46-4.12.88-8.1.74-11.99-.12-2.89-.53-5.74-1.27-8.68-.72-2.96-1.78-6-3.91-7.89-1.76-1.62-4.31-2.43-6.78-2.99-2.96-.65-5.88-.93-8.77-.74-1.92.12-3.87.44-5.81.83l-.58-3.26c.6-.09,1.2-.21,1.81-.32,4.95-.97,9.79-2.41,14.65-5.09,2.89-1.62,5.81-3.68,7.73-6.04,3.77-4.63,3.82-10.46,4.26-16.34l3.84.28c-.09,1-.14,1.99-.16,3.01-.14,5.44.53,11.06,3.56,14.86,1.5,1.92,3.61,3.38,5.83,4.54,3.43,1.78,7.13,2.87,10.95,3.47,2.06.32,4.12.49,6.18.81,2.71.44,5.37,1.11,8.08,1.48,4.24.6,8.59.42,12.89.32,3.96-.07,7.89-.07,11.83-.28Z"
         style="fill: #1c008a;"
         id="path12" />
      <path
         d="m304.43,531.8c.44,1.99.88,4.77.46,4.91-.39.16-1.64-2.31-2.48-4.26-.95-2.25-1.39-3.77-2.59-5.02-.9-.95-2.27-1.74-3.63-2.22-1.41-.49-2.8-.65-4.28-.58-.95.05-1.9.19-2.59.83-.74.69-1.18,1.92-1.85,2.18-.79.28-1.85-.72-2.87-1.48-1-.74-1.9-1.25-2.89-1.32-1.46-.09-3.08.76-4.28,1.69-1.11.83-1.85,1.74-2.87,3.06-1.3,1.74-3.03,4.21-3.59,4.12-.65-.09.35-3.63.69-6.32.35-2.78.05-4.65-.72-6.5-.37-.97-.88-1.92-1.9-2.78-1.06-.88-2.69-1.62-2.66-2.22.02-.65,2.08-1.11,3.29-2.01,1-.74,1.41-1.78,1.44-2.78,0-1.53-1-2.96-2.04-4.33-.69-.88-1.41-1.74-2.52-1.92-.81-.12-1.85.14-2.18.86-.37.76.05,2.01-.23,2.45-.35.6-1.87-.25-3.19-.74-2.25-.81-3.87-.53-5.62-.12-1.44.32-2.99.76-4.51,1.18-1.11.3-2.2.58-3.31.88-.32.07-.65-.07-.81-.37-.14-.3-.09-.65.19-.86,1.44-1.23,2.87-2.43,4.35-3.61,2.04-1.64,4.12-3.24,6.37-4.47,3.22-1.74,6.74-2.66,10.39-4.1,1.25-.51,2.52-1.06,3.75-.95,1.41.16,2.73,1.25,3.98,2.13,1.57,1.11,2.99,1.9,5.37,2.11,1.97.19,4.58-.02,4.7.72.09.62-1.44,1.83-2.78,2.64-1.41.86-2.64,1.25-3.38,2.13-.93,1.11-1.02,2.96-1.27,4.91-.16,1.09-.35,2.2.07,2.82.58.86,2.34.86,3.77.83.83,0,1.57,0,2.25-.14.83-.16,1.57-.58,2.36-1.41.56-.6,1.13-1.44,1.34-1.46.35-.02-.19,1.94.21,3.12.16.46.46.81.79.95.97.42,2.11-1,3.36-1.57.69-.32,1.44-.37,2.08-.21,1.64.42,2.73,2.15,3.77,3.73,1.06,1.6,2.08,3.01,2.85,4.65,1.02,2.18,1.6,4.75,2.2,6.92.09.32.19.62.25.93.25.88.53,1.81.79,3.01Z"
         style="fill: #1c008a;"
         id="path14" />
      <path
         d="m278.18,65.07c.81,14.07,2.99,28.24,1.64,42.18-.67,7.06-2.27,14.07-2.99,21.18-.76,7.66-.53,15.44-1.62,23.08-.67,4.79-1.87,9.54-2.64,14.31-.23,1.41-.42,2.82-.53,4.24l-2.04-.12c.02-.39.05-.76.07-1.16.12-2.52-.09-5.09.42-7.57.28-1.34.76-2.64.76-3.98-.02-1.34-.51-2.71-.21-4.03.37-1.57,1.9-3.08,1.55-4.61-.16-.69-.72-1.41-.74-2.08-.02-.69.49-1.37.74-2.11.23-.67.23-1.39.3-2.04.09-.81.3-1.48.53-2.57.3-1.39.65-3.52-.05-3.38-.25.05-.67.37-1,.72-.58.58-1,1.18-1.34,1.78l-3.84-1.55c1.06-1.69,2.13-3.36,3.19-5.02-.88.25-1.78.51-2.59.74-1.53.42-2.78.72-4.79,1.55-.16.07-.35.14-.53.21l-6.5-1.39c.88-.6,1.69-1.09,2.43-2.11.93-1.3,1.78-3.5,1.16-3.96-.51-.42-2.11.42-3.38,1.04-.81.39-1.5.69-2.15.97-.35.14-.67.28-1,.42-.69.3-1.39.58-2.11.83-.44.14-.9.25-1.3.53l-4.12-4.42c1.09,0,2.25-1.06,3.33-1.94.88-.69,1.74-1.27,2.25-2.08.25-.42.39-.93.51-1.44.05-.21-.02-.42-.19-.56-.19-.12-.39-.14-.58-.02-.76.42-1.53.79-2.34.9-.49.07-1.02.05-1.53.05l-.76-6.71c.62-.09,1.32-.16,2.08-.25,1.87-.21,4.19-.42,3.89-1.62-.05-.25-.23-.56-.46-.76-.58-.56-1.46-.51-2.29-.49-2.57.09-4.88-.02-7.15.58-2.38.65-4.68,2.08-7.15,2.57-.62.14-1.23.21-1.87.23-.25.02-.46-.14-.53-.39-.07-.23.02-.49.25-.6,1.64-.9,3.29-1.81,4.88-2.75,2.15-1.27,4.24-2.62,6.92-2.99,2.66-.37,5.93.19,7.34-1.37,1.04-1.13,1.09-3.4.86-5.46-.42-3.84-1.76-6.97-3.15-10-1.81-3.91-3.7-7.66-6.04-11.39-1.94-3.15-4.21-6.27-6.94-8.68-2.78-2.45-6.06-4.12-9.51-4.81-2.64-.51-5.39-.44-8.24.14-3.24.67-6.62,2.01-9.49,3.77-1.78,1.06-3.36,2.31-4.68,3.8-.79.88-1.5,1.83-2.15,2.85-.23.37-.65.49-1.04.35-.42-.14-.62-.51-.58-.95.09-.67.21-1.32.39-1.94,1.27-4.37,5.44-7.71,9.72-10.16,4.28-2.45,8.7-3.98,13.29-4.81,5.76-1.06,11.81-1,17.78-.19,3.45.49,6.87,1.23,10,2.5,1.71.72,3.33,1.57,4.98,2.69.42.3.86.6,1.34.6.35,0,.74-.16,1-.39.9-.74.56-2.22.16-3.52-.62-1.99-1.34-3.5-2.36-4.91-1.81-2.43-4.54-4.54-7.41-6.04-3.03-1.6-6.18-2.5-9.44-3.17-5.14-1.11-10.53-1.69-15.76-1.2-4.79.44-9.49,1.76-13.63,3.66-2.92,1.32-5.56,2.89-8.08,5.19-3.38,3.06-6.53,7.34-7.78,11.94-.25.88-.42,1.78-.58,2.78-.25,1.48-.46,3.17-1.11,3.61-1.11.76-3.5-2.38-5.3-5.12-4.75-7.29-5.44-11.76-6.27-17.25-.83-5.39-1.83-11.78-2.34-17.92-.37-4.63-.44-9.14,0-13.66.21-2.2.56-4.4.88-6.57-.79,1.48-1.6,2.99-2.27,4.54-1,2.27-1.69,4.68-2.22,7.13l-2.45-.53c.19-1.06.42-2.13.67-3.19,1.04-4.54,2.31-9.03,4.33-13.24.74-1.5,1.55-2.99,2.57-4.31.32-.42.81-.58,1.32-.44s.83.53.9,1.06v.12c.42,3.87.09,7.78.19,11.69.12,5.74,1.09,11.41,2.08,17.08.25,1.53.53,3.06.62,4.61.09,1.69-.02,3.38,0,5.07.05,3.7.81,7.34,1.69,10.95.09.32.3.56.6.65s.62.02.86-.19c1.97-1.76,3.94-3.5,6.06-5.05,5.56-4.07,12.04-6.94,18.87-8.61,7.96-1.94,16.41-2.2,24.26-.23,3.77.95,7.41,2.41,10.88,4.17,3.03,1.53,5.95,3.29,8.7,5.25,1.16.83,2.29,1.71,3.4,2.59.28.23.65.25.95.09.32-.16.51-.46.49-.83-.12-2.43-.21-4.88-.05-7.31.14-2.55.56-5.07.86-7.62.32-2.57.53-5.12.74-7.69.35-4.44.65-8.89.81-13.33.21-4.79.25-9.58.3-14.37,0-.3.19-.53.46-.6s.56.05.69.3c.81,1.46,1.6,2.94,2.31,4.44,2.27,4.77,3.82,9.86,5,15.05,1.74,7.69,2.62,15.53,3.06,23.38.42,7.2.49,14.4.88,21.62Zm-12.8,54.63c.02-.42-.53-.93-.83-1.48-.65-1.09-.32-2.34-.93-2.94-.6-.58-2.08-.53-3.33-.37-1.69.21-2.96.62-4.24,1.3-.74.39-1.48.86-2.2,1.34-.19.14-.28.37-.21.58.05.23.23.39.49.39.62.05,1.25.09,1.9.14,1.18.12,2.41.25,3.24,1.04.51.46.86,1.16,1.44,1.41.51.23,1.2.12,2.06-.09.07-.02.12-.02.19-.05,1.11-.28,2.38-.67,2.43-1.27Z"
         style="fill: #1c008a;"
         id="path16" />
      <path
         d="m267.21,137.36l3.84,1.55c-.58,1-.95,2.01-1.48,3.01-1,1.85-2.59,3.66-2.94,5.76-.21,1.25.02,2.59-.25,3.8-.39,1.85-1.92,3.38-2.73,5.14-1.06,2.31-.9,5-1.37,7.52-.16.9-.42,1.78-.69,2.66-.07.25.02.49.25.62s.49.09.65-.12c.58-.67,1.09-1.32,1.46-1.99.72-1.27.97-2.55,1.87-4.63.79-1.83,2.08-4.31,2.69-3.52.19.23.32.81.39,1.34.21,1.57-.02,2.89-.79,4.03-.51.76-1.23,1.46-1.55,2.29-.3.81-.21,1.76-.28,2.66-.14,1.94-.97,3.61-1.83,5.53-.79,1.78-1.57,3.8-.79,5.37.21.42.53.81.79,1.25,1.02,1.69.74,3.82.56,5.88-.35,3.5-.51,6.76-1.5,9.93-.67,2.15-1.71,4.24-1.87,6.5-.14,1.9.37,3.91,1.37,5.56.69,1.16,1.64,2.13,2.45,3.19,1.25,1.69,2.18,3.63,2.48,5.76l-3.87.51c-.05-.23-.09-.49-.19-.72-.51-1.53-1.99-2.69-3.43-4.26l-.14-.14c-2.06-2.31-4.07-5.44-5.88-5.14-1.48.23-2.85,2.78-4.26,4.81-2.11,2.99-4.35,4.93-5.67,7.59-.95,1.92-1.39,4.26-1.76,6.64-.05.3.05.6.25.86.19.23.49.37.79.37.9,0,1.78.02,2.69.07,1.71.12,3.43.35,5.09.93,1.71.6,3.38,1.6,5.12,1.6l-.39,2.31c-1.23-.21-2.5-.32-3.82-.21-1.9.14-3.94.69-4.98,2.04-.88,1.09-1.06,2.73-1.23,4.28-.14,1.41-.25,2.75-.37,4.07-.02.35-.23.58-.56.65s-.62-.07-.76-.37c-.6-1.13-1.23-2.25-1.97-3.31-1.41-1.99-3.26-3.77-5.46-4.75s-4.79-1.16-7.18-.76c-1.55.25-3.03.76-4.47,1.39l-1.02-2.2c.76-.37,1.48-.83,2.18-1.32,1.41-1,2.66-2.08,3.94-3.17-1.69-1.87-3.38-3.77-5.28-5.39-3.68-3.08-8.24-5.14-11.99-8.12-4.42-3.52-7.75-8.33-11.9-12.18-1.74-1.6-3.61-3.03-5.32-4.7-2.2-2.13-4.17-4.65-6.16-6.69-1.34-1.34-2.69-2.48-4.07-4.51-1.04-1.55-2.08-3.63-1.92-4.19.25-.83,3.26,1.78,5.83,3.7,5.35,4,8.73,5.02,12.29,7.48,2.94,2.01,6.02,5.02,9,7.75,3.17,2.89,6.25,5.46,8.98,8.91,1.64,2.06,3.17,4.42,5.25,5.51.88.46,1.85.67,3.03.9.93.16,1.97.32,2.43-.14.46-.49.3-1.6.49-2.41.35-1.74,2.06-2.2,4.19-2.92,1.87-.6,4-1.39,4-1.92,0-.58-2.48-.86-4.54-1.25-5.53-1.04-8.31-2.89-11.13-5.86-1.44-1.53-2.87-3.33-4.75-4.35-1.27-.67-2.71-.97-4.07-1.44-3.61-1.25-6.67-3.63-9.65-6.04-3.75-2.99-7.36-5.97-10.93-9.17-2.06-1.87-4.1-3.82-5.67-6.04-3.06-4.28-4.37-9.65-6.27-14.68-.07-.19-.14-.37-.21-.53l2.15-.88c1.23,3.15,2.29,6.37,3.8,9.35,1.39,2.69,3.1,5.21,4.84,7.73-.95-2.55-1.9-5.09-2.75-7.66-.79-2.38-1.5-4.79-1.92-7.27-.56-3.26-.65-6.64-1.62-9.77-.65-2.08-1.71-4.07-2.55-6.13-1.16-2.78-1.9-5.72-2.87-8.56-.49-1.48-1.04-2.92-1.2-4.49-.07-.62-.07-1.27-.14-1.9l1.78-.19c.02,1.06.83,3.31,1.57,5.21,2.2,5.58,3.66,7.89,4.95,11.64.39,1.13.76,2.41,1.06,3.68.88,3.73,1,7.48,1.64,11.13.12.58.23,1.18.37,1.78.76,3.43,1.99,6.76,3.38,10.14,1.06,2.52,2.22,5.09,4.24,6.78,1.09.93,2.41,1.6,3.59,2.41,2.08,1.44,3.75,3.33,5.6,5.12,2.18,2.08,4.63,3.98,7.29,4.91,3.94,1.39,8.36.67,12.87,1.04,2.8.21,5.65.86,8.03,0,1.13-.42,2.15-1.13,3.61-1.16.76,0,1.64.21,1.97-.28.23-.3.21-.93,0-1.34-.46-1-1.87-.86-3.17-.76-3.03.23-5.3.09-7.78,0-2.78-.07-5.86-.07-8.73.35-1.62.23-3.19.6-4.88.62-.79,0-1.6-.07-2.18-.67-.35-.39-.6-1.02-.53-1.34.19-.67,1.67-.3,2.8-.3s1.99-.42,2.87-.62c1.94-.44,4.28.09,6.48-.14.76-.07,1.5-.25,2.15-.58,1.94-.93,3.15-3.08,4.86-4.44,1.04-.86,2.31-1.41,3.26-2.41.93-.95,1.57-2.34,1.46-3.63-.12-1.48-1.27-2.89-2.57-3.7-2.41-1.53-5.37-.97-8.36-.93-1.76.02-3.52-.12-4.91.58s-2.36,2.11-3.47,3.24c-.42.39-.81.76-1.32,1.06-1.3.76-3.12,1.04-4.4.14-.44-.3-.79-.74-.93-1.16-.37-1.23,1.25-2.38,2.43-3.54,1.27-1.23,2.06-2.48,3.29-3.22,1.44-.88,3.47-1.04,5.32-1.11,1.69-.07,3.24-.05,4.91.23s3.43.81,4.86.05c.67-.35,1.27-1,1.97-1.18.74-.19,1.62.16,2.45-.14,1.06-.42,2.06-1.9,1.9-2.5-.21-.79-2.5.02-4.19-.05-1.5-.05-2.55-.74-3.63-.53-.97.19-1.97,1.16-3.01,1.41-1.25.3-2.59-.39-3.91-.74-1.94-.49-3.84-.21-5.81-.28-1.09-.05-2.2-.19-3.24.02-.62.14-1.25.39-1.85.74-1.6.88-3.24,2.2-5.02,1.32-.44-.23-.93-.6-1.23-.53-.39.09-.51.97-1.02,1.46-.65.65-1.9.69-2.27.3-.44-.49.49-1.64,1.13-2.55,1.09-1.48,1.46-2.27,3.38-3.15.93-.39,2.2-.83,2.18-.44s-1.23,1.53-.9,1.92c.14.14.44.19.74.19,1.71.09,2.8-.74,4.12-1.37,1.64-.76,3.63-1.25,5.37-.83,1.2.3,2.29,1.02,3.52,1.48,1.16.42,2.45.62,3.59.23,1.3-.42,2.38-1.6,3.63-1.81,1.16-.21,2.45.46,3.73.79,1.71.44,3.38.3,5.07.58.72.14,1.46.32,2.2-.05.46-.23.93-.72,1.27-.58.21.07.37.37.6.58.58.58,1.64.65,2.15.21.35-.32.46-.9.39-1.48l3.59-1.34c.39,1.02.76,2.08,1.16,3.12.79,2.13,1.74,4.24,1.9,6.25.12,1.34-.09,2.64.39,4.03.23.67.62,1.37.93,1.44.51.12.69-1.81,1-3.22.25-1.2.6-2.04.86-2.96.62-2.34.74-5.25.72-8.1,0-2.25-.07-4.47.79-6.37.39-.9,1.02-1.74,1.55-2.62,1.34-2.2,2.2-4.63,3.26-6.94,1.25-2.75,2.78-5.39,4.35-7.96Z"
         style="fill: #1c008a;"
         id="path18" />
      <path
         d="m270.4,455.92c.44.07.49,1.44.32,2.48-.19,1.04-.6,1.74-1.2,2.22-1.13.93-2.96,1.09-4.49,1.67-2.2.86-3.77,2.62-5.39,4.35-2.45,2.62-4.95,5.16-6.48,8.29-.56,1.11-.97,2.31-1.37,3.52-.74,2.22-1.37,4.49-2.55,6.44-.83,1.41-1.94,2.64-3.19,3.84-1.13,1.04-2.38,2.06-2.99,3.31-1.06,2.27.05,5.3.39,8.12.23,1.69.16,3.31.05,4.93-.05.3-.23.53-.51.6-.28.09-.56.02-.76-.21-.58-.72-1.16-1.44-1.71-2.15-1.71-2.27-3.26-4.72-5.35-6.62-1.53-1.39-3.36-2.45-5.28-3.33-3.17-1.44-6.64-2.31-9.49-3.96-2.08-1.2-3.84-2.82-6-4.35-1.37-.95-2.87-1.9-3.26-3.19-.25-.86-.05-1.85,0-2.85.09-2.85-1.25-5.74-2.18-8.19-1.02-2.75-1.5-5-2.36-9.4-.58-2.99-1.34-6.94-.88-6.94.02,0,.05.02.09.05.35.28,1.13,1.97,1.71,3.4.65,1.62,1.04,2.96,1.55,4.26,1.11,2.82,2.78,5.58,4.33,7.43,1.32,1.55,2.55,2.5,5.37,4.98,1.46,1.27,3.36,2.96,3.43,2.31.02-.25-.23-.86-.07-1.34.14-.51.74-.88,1.23-.76.23.07.44.25.65.46.65.74,1.06,1.67,1.57,2.55,1.09,1.9,2.66,3.61,3.73,5.28,1.3,2.01,1.87,3.94,4.1,6.69,1.18,1.46,2.8,3.15,3.33,2.43.25-.3.28-1.06.32-1.74.09-1.5.19-2.69.28-3.89.14-2.04.28-4.19.05-6.62-.16-1.53-.46-3.17.25-4.19.58-.79,1.76-1.18,2.73-1.74,1.13-.65,1.99-1.5,2.41-2.82.42-1.23.42-2.85,1.3-3.24.51-.21,1.3-.02,1.99-.05,1.34-.02,2.41-.83,3.43-1.64,2.73-2.13,5.39-4.37,8.68-4.98,1.85-.35,3.91-.19,5.65-.53,1.9-.39,3.43-1.44,5.12-3.5.46-.58.95-1.18,1.27-1.34.07-.02.14-.02.19-.02Z"
         style="fill: #1c008a;"
         id="path20" />
      <path
         d="m259.96,137.06c.37.95,3.24,1.9,2.94,2.8-.09.3-.56.6-1,.93-1.57,1.11-2.73,2.36-3.68,3.68-.93,1.3-1.64,2.69-2.22,4-.65,1.53-1.06,3.01-1.6,5.19-.35,1.41-.72,3.15-1.34,3.33-.62.21-1.5-1.23-2.48-2.73-1.69-2.62-3.66-5.49-4.28-4.75-.42.51-.21,2.8.37,4.44.53,1.46,1.37,2.38,2.04,3.43.62,1,1.13,2.13,1.6,3.31l-3.59,1.34c-.05-.35-.16-.69-.35-.97-.37-.65-1-.93-1.67-1.39-.25-.16-.51-.37-.74-.39-.53-.05-.79,1-1.32,1.62-.72.86-1.94.95-2.8.44-.42-.23-.74-.62-1.13-.83-.65-.32-1.5-.05-2.41.25-1.06.35-2.22.72-2.89.3-.56-.37-.79-1.27-.88-2.27-.12-1.09-.07-2.29-.65-2.66-.69-.42-2.29.32-3.01,1.3-.62.86-.56,1.87-.83,2.75-.21.65-.62,1.23-1.25,1.74-.37.3-.81.58-1.13.53-.6-.09-.72-1.39-.39-2.36.39-1.13,1.44-1.81,1.44-2.43.02-.74-1.57-1.39-2.87-2.06-.39-.19-.74-.39-1.09-.6l1.34-1.85c.19.12.35.23.51.37.14.12.28.21.39.32.35.28.76.3,1.16.12.37-.19.6-.56.58-1-.05-.95-.07-1.87-.12-2.82-.12-3.24-.21-6.48-.58-9.72-.44-3.82-1.25-7.62-1.04-11.41.05-.97.19-1.97.32-2.94.02-.19.14-.32.3-.42.19-.07.37-.05.51.05.37.25.72.35,1.02.23.37-.14.67-.56,1.04-1,.42-.53.9-1.13.51-1.57-.25-.3-.88-.51-1.25-.86-.58-.58-.39-1.46-.35-2.2.02-.46-.02-.88-.12-1.27l1.71-.39c.12.62.32,1.25.6,1.92.51,1.16,1.32,2.43,2.15,2.25.39-.07.79-.46,1.13-.83.86-.88,1.48-1.57,2.27-2.25,1.71-1.46,4.21-2.8,6.39-3.61,1.62-.6,3.03-.9,4.98-1.16l.76,6.71c-.25,0-.51,0-.76.02-1.13.09-2.22.58-3.24,1.11-.67.35-1.3.72-1.92,1.09-.21.14-.3.35-.25.58.05.21.21.37.44.42.51.07,1,.19,1.46.42.9.46,1.69,1.3,2.55,1.44.09.02.19.02.28.02l4.12,4.42c-.14.12-.25.21-.37.35-.6.72-.9,2.11-.39,2.5.42.37,1.41,0,2.15.25.69.21,1.16.95,1.69,1.11.72.19,1.57-.67,2.36-1.3.32-.25.62-.46.9-.65l6.5,1.39c-1.39.6-2.85,1.41-2.52,2.22Z"
         style="fill: #1c008a;"
         id="path22" />
      <path
         d="m233.6,94.88c.09.37-.72,1.41-1.16,2.38-.51,1.18-.49,2.27-.69,3.4-.25,1.34-.81,2.73-1.25,4.14-.83,2.82-1.11,5.74-1.55,8.47-.3,1.74-.65,3.4-.25,5.35l-1.71.39c-.14-.72-.42-1.41-.72-2.31-.25-.74-.53-1.6-.72-1.71-.28-.14-.35,1.25-.28,2.43.07,1.27.3,2.31-.3,2.34-.3.02-.79-.19-1.06-.46-.79-.76-.19-2.04-1.02-3.15-.19-.28-.46-.53-.6-.58-.46-.16-.02,1.32.19,2.41.3,1.39.21,2.13.51,3.08.12.35.25.74.25,1.11,0,.88-.88,1.69-1.9,1.92-.97.21-2.04-.14-2.55.49-.25.3-.37.88-.21,1.32.07.21.21.39.37.53.58.49,1.39.19,2.45.28,1.04.07,2.36.56,2.22,1.04-.09.35-.83.67-1.44.81-.79.16-1.32-.02-2.13,0-.6.02-1.34.16-1.55.37-.32.35,1.02.83,2.13,1.69,1.81,1.41,3.03,3.8,2.08,3.77-.28,0-.72-.19-1.09-.39-1.3-.74-2.04-1.83-2.8-2.94-.65-.93-1.3-1.85-2.45-2.31-.42-.16-.9-.25-1.13-.19-.62.21.79,1.81,1.81,2.96,1.06,1.23,1.71,1.97,2.38,2.78.65.81,1.32,1.69,1.94,2.85.44.79.83,1.74.72,1.97-.19.39-1.9-1.27-3.1-2.48-1.13-1.16-1.81-1.9-2.62-2.82-.67-.76-1.44-1.64-2.29-2.18-1.46-.88-3.17-.76-5-1.11-2.55-.49-5.25-1.85-7.55-3.03-2.43-1.25-4.37-2.25-7.36-4.31-2.13-1.46-4.79-3.5-5.37-3.08-.62.46,1.3,3.91,2.73,6.2.88,1.41,1.57,2.38,2.55,3.24,1.27,1.11,3.03,1.99,4.37,3.45.49.53.93,1.16,1.46,1.6.81.67,1.81.9,2.75,1.16,1.62.42,3.06.9,4.77,1.18,1.5.25,3.22.35,4.75.46,1.39.09,2.64.21,4.61,1.02,1.3.53,2.94,1.37,2.57,1.92-.19.32-.97.56-1.67.69-1.97.37-3.36.02-4.79-.14-.76-.07-1.57-.09-2.36-.09-.28,0-.49.16-.53.42s.07.49.3.6c1.53.67,2.96,1.46,4.12,2.59.62.62,1.18,1.34,1.78,2.04,1.74,2.01,3.82,3.7,5.97,5.3.65.46,1.27.9,1.9,1.39l-1.34,1.85c-2.36-1.39-3.68-2.87-5.53-4.63-.69-.69-1.48-1.41-2.31-1.6-1.37-.3-2.85.79-4.24,1.78-1.99,1.46-3.77,2.75-4.95,4.47-.88,1.3-1.44,2.85-3.08,3.96-.79.56-1.83,1-2.25.9-.76-.19.97-2.45,2.29-4.17,1.92-2.48,2.94-3.75,4.63-5.07,1.06-.83,2.38-1.67,3.47-2.66.07-.09.16-.16.23-.23.21-.21.3-.49.25-.79-.05-.28-.23-.53-.49-.65-2.82-1.34-5.62-2.71-8.38-4.26-4.03-2.27-7.99-4.98-11.64-7.11-2.04-1.2-4-2.22-6.44-4.03-.83-.58-1.69-1.27-2.15-1.34-.3-.05-.42.21-.42.65l-1.78.19c-.07-.62-.23-1.2-.6-1.74-.65-.93-1.99-1.62-1.92-2.66.02-.3.16-.62.37-.88.58-.65,1.62-.6,2.62-.19.88.39,1.71,1.06,2.22.81.44-.23.6-1.16.6-1.97,0-1.34-.49-2.31-1.04-3.29-.79-1.39-1.69-2.73-2.5-4.19-1.13-1.99-2.15-4.17-1.9-6.3.19-1.5.97-3.01,1.81-4.4.97-1.67,2.04-3.19,3.01-4.7,1.44-2.15,2.69-4.19,5.16-6.55,1.34-1.3,3.06-2.69,3.61-2.57.79.19-.95,3.59-2.36,6.18-1.53,2.8-2.66,4.65-2.52,6.83.07.9.35,1.9.79,2.78.65,1.3,1.6,2.38,2.73,3.26,1.92,1.48,4.37,2.38,6.76,3.26,2.66,1,5.21,2.01,8.06,2.69,2.94.69,6.2,1.02,8.66,2.43,1.62.93,2.89,2.31,4.26,1.74.65-.25,1.32-.97,1.6-1.76.42-1.27-.23-2.71-.76-4.12-1.06-2.85-1.57-5.49-2.75-8.19-1.34-3.08-3.61-6.2-5.23-8.63-.97-1.44-1.71-2.59-3.26-4.93-1.11-1.64-2.62-3.89-1.48-3.98.23-.02.53.02.81.14.44.16.81.46,1.16.76,1.23,1.11,2.2,2.38,2.99,3.5,1.25,1.76,2.11,3.12,3.98,6,1.18,1.81,2.75,4.21,3.1,3.33.09-.28.07-.9,0-1.46-.25-1.69-1.06-2.87-1.78-4-.97-1.6-1.76-3.12-2.59-5.35-.6-1.69-1.25-3.75-.97-4.19.35-.53,2.11,1.41,3.33,4.14,1.06,2.41,1.76,5.39,2.29,4.28.28-.58.51-2.2.86-2.36.37-.19.86,1.39,1.32,2.41.42.88.81,1.37.79,2.25,0,.65-.23,1.5.25,1.76.25.12.69.07.9-.14.28-.23.16-.69.09-1.16-.14-1.06-.07-1.97,0-2.89.05-.88.09-1.76.53-2.69.49-1.04,1.44-2.11,2.01-1.92.69.21.86,2.15.81,3.47-.05,1.11-.25,1.78-.72,2.96-.51,1.3-1.32,3.22-.3,3.31.21.02.53-.05.72-.19.32-.23.28-.67.42-1.2.19-.6.6-1.27.74-1.27.19.07-.62,2.41-.07,2.62.21.07.58-.14.86-.37,1.02-.88.65-2.36,1.04-3.38.25-.69.88-1.16,1.64-1.64,1.44-.86,3.38-1.69,3.52-1.18Zm-22.43,29.19c.19-.09.3-.3.28-.51s-.14-.39-.35-.46c-1.2-.42-2.41-.81-3.61-1.2-1.53-.51-3.06-.97-4.63-1.34-1.3-.3-2.62-.51-3.91-.72-.35-.05-.65.09-.86.35-.21.28-.23.62-.09.93.28.53.58,1.06.95,1.55,1.3,1.67,3.43,2.78,5.58,3.08.88.12,1.76.09,2.62-.05,1.41-.28,2.73-.9,4.03-1.62Z"
         style="fill: #1c008a;"
         id="path24" />
      <path
         d="m223.02,372.89l.58,3.26c-1.94.37-3.89.79-5.83,1.11-2.38.39-4.81.6-7.25.79-12.27.9-24.65,1.02-36.94-.44-8.98-1.09-17.92-3.03-26.32-6.25-4.35-1.69-8.56-3.7-12.75-5.79-.3-.14-.62-.09-.86.16-.21.23-.25.56-.07.83.76,1.27,1.57,2.5,2.48,3.63,2.31,2.94,5.32,5.32,8.38,7.57,2.71,1.99,5.49,3.89,8.29,5.74.62.39,1.25.81,1.87,1.2.3.21.42.53.28.88-.14.32-.46.49-.81.42-.74-.16-1.5-.32-2.25-.51-4.42-1.11-8.75-2.75-12.55-5.21-3.17-2.01-5.97-4.61-8.82-7.08-.58-.51-1.16-1-1.74-1.5-.28-.23-.62-.23-.9-.02-.28.23-.35.58-.19.88.46.93.9,1.83,1.32,2.78.83,1.99,1.48,4.1,2.43,6.04,1.39,2.85,3.38,5.37,5.51,7.75,2.92,3.26,6.04,6.27,8.84,9.56,1.11,1.3,2.18,2.64,3.22,3.98.21.28.21.62-.02.88-.23.28-.58.35-.88.19-1.6-.86-3.17-1.74-4.68-2.73-1.92-1.27-3.75-2.71-5.49-4.21-4.24-3.7-8.1-7.87-11.18-12.52-.74-1.13-1.46-2.31-2.13-3.47-.19-.32-.51-.44-.86-.32-.35.14-.51.44-.44.81.16.88.35,1.78.53,2.69.16.86.35,1.69.56,2.55l-6.64,1.62c-.37-1.87-1.2-3.7-1.71-5.58-.65-2.5-.69-5.14-1.18-7.66-.74-3.75-2.5-7.27-5-10.44-.79-1-1.64-1.94-1.94-3.06-.42-1.62.35-3.59.81-5.21.25-.9.42-1.71.67-2.89.21-.9.46-2.04.16-2.29-.32-.32-1.39.44-2.38,1-1.34.74-2.52,1.11-3.45.51-.56-.37-1-1.06-.97-1.81.02-.65.39-1.32.93-1.5.46-.19,1.04,0,1.55-.05,1.02-.09,1.69-1.06,2.36-2.01,3.22-4.63,5.79-8.47,8.4-12.59,3.96-6.23,8.06-13.08,10.56-20.32,1.04-3.06,1.81-6.16,2.48-9.31.76-3.5,1.39-7.04,1.9-10.56.21-1.6.42-3.19.32-4.88-.05-.95-.19-1.94.35-2.73.37-.58,1.09-1.06,1.57-1.11,1.39-.19,1.11,2.85.95,5.28-.32,4.93-.16,7.52-.19,10.83-.02,2.55-.16,5.51-.76,8.26-.79,3.61-2.36,6.83-3.68,10.23-.95,2.45-1.76,5-2.2,7.59-.69,4.05-.51,8.22.37,12.34.81,3.77,2.2,7.5,4.51,10.42,2.92,3.66,7.29,6.04,11.48,8.47,4.44,2.55,8.68,5.14,13.22,7.18,8.06,3.61,16.99,5.44,25.86,6.6,5.25.67,10.49,1.13,15.79,1.34,8.17.32,16.5.12,24.54-1.3Z"
         style="fill: #1c008a;"
         id="path26" />
      <path
         d="m220.17,525.97c.07.58-.12,1.32-.49,1.41-.3.07-.72-.28-1.06-.56-.39-.32-.67-.58-1.02-.76-1.37-.76-3.63-.46-5.65-.19-2.73.35-4.98.67-7.36,1.44-2.59.83-5.35,2.2-7.59,3.63-1.27.81-2.41,1.64-3.77,2.18-.72.28-1.53.46-2.36.58-.74.09-1.53.14-2.15-.14-.86-.39-1.39-1.41-2.13-2.08-1.09-.97-2.59-1.18-4.12-1.27-3.38-.21-6.83.09-9.86.86-1.92.49-3.68,1.13-5.6,1.9-1.04.39-2.13.83-2.85,1.64-.58.62-.93,1.46-1.5,2.08-.25.28-.58.51-.9.72-.28.16-.6.14-.83-.07s-.32-.51-.19-.81c.49-1.18.93-2.36,1.2-3.56.69-2.92.58-6.02.3-9.1-.21-2.55-.51-5.12-.19-7.55.51-3.87,2.64-7.43,4.31-11.18,1.32-2.96,2.36-6.02,2.66-9.1.37-3.56-.23-7.11-.42-10.95-.12-1.83-.12-3.75-1-5.16-.37-.58-.88-1.09-1.13-1.85-.25-.9-.16-2.18.19-2.5.56-.49,1.69,1.32,2.57,2.92,2.52,4.7,2.71,7.57,2.96,11,.21,2.62.49,5.58.12,8.7-.19,1.62-.56,3.26,0,4.51s2.04,2.08,3.01,3.38c1.09,1.48,1.53,3.56.74,5.05-.37.67-1,1.23-1.53,1.76-.37.37-.69.74-.88,1.32-.21.62-.25,1.48.05,1.64.49.32,1.99-1.48,2.55-1.34.39.09.35,1.04.21,1.92-.12.56-.28,1.09.02,1.25.19.14.6.07.88-.14.42-.37.44-1.2.65-1.34.25-.16.86.93,1,1.74.14.83-.21,1.37-.86,1.92-.32.28-.72.58-.62.83.05.14.23.28.44.39,1.3.67,2.55.14,3.8.07,1.25-.09,2.48.28,3.8.3,1.53.05,3.19-.37,4.17-1.46.46-.53.76-1.23.81-1.94.02-.79-.3-1.6.05-2.04.35-.49,1.48-.51,2.5-.53,1.81,0,3.22.02,4.63.14l1.32.14c2.78.32,6,.9,8.75,1.94,2.11.81,3.91,1.85,5.6,3.29.76.65,1.5,1.37,2.41,1.85,1.16.65,2.59.88,3.59,1.71.42.32.76.76.81,1.41Z"
         style="fill: #1c008a;"
         id="path28" />
      <path
         d="m190.26,487.4c.81,1.62,1.67,4.12.95,4.1-.37,0-1.16-.67-1.69-1.37-1.04-1.3-1.18-2.62-2.01-3.63-.39-.49-.95-.93-1.48-1.37-1.39-1.23-2.48-2.69-3.82-3.84-1.69-1.44-3.8-2.43-5.62-3.73-2.04-1.46-3.73-3.29-5.44-5.14-1.39-1.48-2.78-2.96-4.33-4.21-1.83-1.48-3.89-2.64-5.83-3.96-1.06-.72-2.08-1.46-3.36-1.71-.46-.12-.97-.14-1.39.09-.76.42-1.2,1.69-1.87,1.81-.51.09-1.18-.56-1.87-.88-.83-.37-1.76-.23-2.45.25-.88.6-1.46,1.74-1.32,2.71.09.62.49,1.2.76,1.78.42.88.6,1.83.62,2.78.05,1.81-.49,3.66-1.5,5.14-.9,1.34-2.2,2.36-3.22,3.59-1.41,1.74-2.29,3.91-2.73,6.11-.51,2.62-.39,5.28-.25,7.92.16,3.61.3,7.2.9,10.74.32,2.01.79,4,1.04,6.02.12.88.19,1.74.23,2.62.02.49-.23.88-.67,1.04-.42.19-.88.07-1.2-.28-1-1.13-1.94-2.29-2.78-3.52-1.99-2.89-3.31-6.18-4.49-9.7-1.71-5.07-3.15-10.65-3.31-15.02-.12-2.73.3-5.02,1.23-9.56.39-1.87.88-4.17,1.18-3.82.19.19.3,1.09.35,2.08.05.42.05.83.07,1.25.07,1.27.14,2.36.62,2.29.39-.07,1.04-.88,1.44-1.64.93-1.74.58-3.19.51-4.98-.05-1.18.02-2.48.76-3.22.35-.35.86-.58,1.32-.83,2.18-1.18,3.54-3.06,4.95-5.25.79-1.27,1.6-2.62,1.57-3.8,0-1.48-1.37-2.64-1.85-4.86-.23-1.04-.28-2.34.05-2.89.09-.16.23-.28.39-.28.42-.02,1.06.51,1.41,1.13.42.72.46,1.55.88,1.83.42.25,1.18-.07,1.99-.23.69-.14,1.44-.19,1.64-.56.16-.3-.09-.88-.39-1.46-.39-.81-.83-1.6-.44-2.04.3-.3,1.02-.42,1.48-.21.56.23.69.97.93,1.57.42,1.02,1.13,1.76,1.94,2.34,1.02.76,2.13,1.3,3.03,2.41.53.62,1,1.46,1.62,1.55.46.07,1.02-.28,1.55-.56,1.48-.76,2.78-1.13,4.26-1.53,1.46-.39,3.08-.83,4.35-.32,1.11.42,1.92,1.55,2.75,2.57,1.11,1.41,2.25,2.66,3.54,3.7,1.57,1.27,3.38,2.22,5.46,3.15,1.94.86,4.1,1.69,4.86,3.36.32.69.37,1.55.44,2.41,0,.28.02.58.05.86.16,2.59.81,4.88,1.16,7.48.32,2.29.39,4.79,1.23,6.6.44.97,1.11,1.74,1.81,3.12Z"
         style="fill: #1c008a;"
         id="path30" />
      <path
         d="m126.24,457.5c.07,1.83-.44,3.56-.79,5.21-.21,1-.35,1.94-.9,2.69-1.06,1.41-3.61,1.99-5.81,2.57-1.62.44-3.03.86-4.47,1.34-1.34.44-2.69.95-4.21,1.53-1.11.44-2.34.9-2.82,1.81-.37.67-.37,1.53-.42,2.36-.05,1-.19,1.9-.67,2.55-.69.88-2.04,1.3-3.29,1.78-1.97.79-3.68,1.71-5.46,2.57-1.9.93-3.87,1.78-5.83,3.19-.97.72-1.94,1.55-1.94,2.64-.02,1,.74,2.18.16,2.94-.28.37-.86.65-1.3.58-.65-.12-.97-1-1.13-1.78-.28-1.44-.02-2.62.35-3.8.42-1.37,1-2.71,1.57-4.05.72-1.67,1.41-3.33,1.57-5.12.12-1.44-.16-2.94-.76-4.28-.74-1.64-2.01-3.03-3.43-4.1-2.08-1.6-4.47-2.48-7.06-3.61-.62-.25-1.27-.56-1.62-1.02-.88-1.13-.05-3.33-.69-4.68-.42-.9-1.5-1.44-2.57-1.9-2.78-1.2-5.3-2.04-8.03-2.31-3.15-.3-6.53.16-9.63,1.16-1.44.46-2.82,1.04-4.17,1.67-.32.16-.65.07-.86-.19-.21-.28-.23-.6-.02-.88.3-.39.6-.76.93-1.11,1.16-1.32,2.57-2.41,4.1-3.36,2.62-1.64,5.6-2.87,8.33-3.63,2.71-.76,5.19-1.06,9.03-.23,1.5.3,3.24.81,3.56.12.21-.51-.25-1.57-.83-2.36-.67-.9-1.48-1.41-1.55-2.43-.05-.6.14-1.37.49-1.62.58-.42,1.6.67,2.41,1.53,1.13,1.18,1.92,1.94,2.73,2.85,1.39,1.48,2.92,3.33,4.81,4.58,1.64,1.06,3.56,1.69,4.81,3.06,1.11,1.2,1.69,2.99,2.27,4.51.97,2.69,1.9,4.58,1.78,8.73-.05,1.71-.28,3.82.37,3.68.32-.07.86-.69,1.32-1.27,1.2-1.39,2.08-2.41,2.92-3.5,1-1.3,1.9-2.73,2.92-4.54.37-.65.74-1.32,1.32-1.39.46-.07,1.04.3,1.3.83.39.86,0,2.18.19,2.41.21.25,1.23-.95,2.04-1.94,1.55-1.92,2.34-2.99,3.29-4.37,1.18-1.74,2.62-3.96,3.22-6.02.49-1.81.35-3.5-.23-5.93-.25-1.02-.58-2.18-.49-2.45.19-.49,1.83,2.13,2.94,3.66.46.65.83,1.11,1.25,1.55.9,1.04,1.97,2.04,2.87,3.52.65,1.04,1.23,2.34,2.22,2.38.49.02,1.09-.3,1.62-.23s1,.51,1.34.97c.69.95.93,2.06.97,3.15Z"
         style="fill: #1c008a;"
         id="path32" />
      <path
         d="m48.48,417.91c.23,1.09.21,2.25.05,3.38-.39,2.96-1.69,5.67-2.71,8.5-.93,2.59-1.6,5.28-1.81,7.94-.25,3.24.19,6.41-.23,9.98-.14,1.18-.37,2.38.12,3.29.32.62,1,1.06,1.48,1.71.46.62.76,1.41.65,2.15-.07.49-.3.93-.56,1.34-.79,1.34-1.78,2.43-2.89,3.59-1.25,1.32-2.64,2.73-2.94,4.4-.25,1.39.32,2.99.76,4.42.32,1,.58,1.9.95,2.92.35.95.79,1.99.23,2.82-.23.37-.67.69-1.04.65-.3-.05-.58-.35-.74-.69-.25-.56-.25-1.23-.56-1.48-.35-.3-1.13.02-1.85.19-2.48.58-4.35-.46-6.25-1.11-2.06-.69-4.14-.88-6.37-2.89-.97-.88-1.97-2.11-2.41-1.87-.42.21-.37,1.71-.3,2.85.07,1.44.14,2.25-.25,3.61-.39,1.44-1.3,3.4-1.76,3.33-.42-.07-.49-1.92-.65-3.45-.35-2.92-1.11-4.58-1.94-6.48-.53-1.25-1.11-2.62-1.76-4-.53-1.16-1.13-2.36-1.78-3.52-1.16-1.99-2.5-3.89-3.91-5.32-1.81-1.83-3.68-2.87-6.67-5.14-1.71-1.32-3.8-3.01-2.87-3.89.35-.35,1.11-.56,1.74-.49.72.07,1.27.53,1.87.9.97.62,2.06,1.02,3.17,1.44,1.78.67,3.59,1.39,5.42,1.67,1,.16,1.99.16,3.1-.02.83-.16,1.71-.42,2.31-.12.62.3.93,1.23,1.32,2.01.6,1.25,1.41,2.13,2.15,3.17,1.27,1.74,2.31,3.87,3.75,5.32,1,1.02,2.18,1.71,3.33,3.15.69.86,1.37,1.97,2.13,1.71.28-.09.58-.37.69-.72.19-.53-.07-1.23-.49-1.5-.32-.23-.74-.21-1-.49-.19-.19-.28-.53-.14-.76.07-.16.28-.25.53-.28.72-.12,1.9.16,2.2-.21.23-.28-.07-.93,0-1.39.07-.39.35-.67.62-.76.62-.23,1.18.37,1.44,1.25.19.65.21,1.46.74,1.57.23.05.58-.05.83-.19.74-.44.69-1.44.69-2.34.02-1.78.28-3.26.23-4.75-.07-2.57-1.02-5.19-1.9-7.94-.67-2.04-1.3-4.17-.74-6.02.37-1.3,1.32-2.43,2.13-3.63,1.25-1.81,2.18-3.7,3.29-5.56,1.69-2.85,3.82-5.56,5.16-8.59.69-1.55,1.2-3.22,1.64-4.88.07-.32.32-.51.65-.53.3-.02.58.16.69.44.16.44.3.86.42,1.32Z"
         style="fill: #1c008a;"
         id="path34" />
    </g>
  </g>
  <g
     id="MTEXT">
    <text
       transform="translate(169.83 566.73)"
       style="font-family: ArialMT, Arial; font-size: 15.67px;"
       id="text41"><tspan
         x="0"
         y="0"
         id="tspan39">templatesarea.com</tspan></text>
  </g>
  <metadata
     id="metadata153">
    <rdf:RDF>
      <cc:License
         rdf:about="http://creativecommons.org/licenses/by-nc/4.0/">
        <cc:permits
           rdf:resource="http://creativecommons.org/ns#Reproduction" />
        <cc:permits
           rdf:resource="http://creativecommons.org/ns#Distribution" />
        <cc:requires
           rdf:resource="http://creativecommons.org/ns#Notice" />
        <cc:requires
           rdf:resource="http://creativecommons.org/ns#Attribution" />
        <cc:prohibits
           rdf:resource="http://creativecommons.org/ns#CommercialUse" />
        <cc:permits
           rdf:resource="http://creativecommons.org/ns#DerivativeWorks" />
      </cc:License>
      <cc:Work
         rdf:about="">
        <cc:license
           rdf:resource="http://creativecommons.org/licenses/by-nc/4.0/" />
        <dc:title>Batman Graphic Image Free Svg Design File</dc:title>
        <dc:description>Batman Graphic Image Free Svg Design File. Batman silhouette svg for cricut.</dc:description>
        <dc:creator>
          <cc:Agent>
            <dc:title>templatesarea.com</dc:title>
          </cc:Agent>
        </dc:creator>
        <dc:publisher>
          <cc:Agent>
            <dc:title>templatesarea.com</dc:title>
          </cc:Agent>
        </dc:publisher>
        <dc:rights>
          <cc:Agent>
            <dc:title>https://www.templatesarea.com/license-agreement/</dc:title>
          </cc:Agent>
        </dc:rights>
      </cc:Work>
    </rdf:RDF>
  </metadata>
</svg>
